<?xml version="1.0" standalone="no"?>
<svg viewBox="0 0 200 200" xmlns="http://www.w3.org/2000/svg">
  <path fill="#F1C21B" d="M40.3,-65.8C50.7,-56,56.7,-42.3,55.9,-29.7C55.1,-17.2,47.6,-5.7,48.9,9.2C50.2,24.2,60.3,42.6,57.1,53.3C53.8,64,37.2,67,22.8,65.8C8.5,64.6,-3.7,59.1,-18.3,57.2C-33,55.2,-50.2,56.8,-63.2,50.1C-76.2,43.4,-85,28.5,-76.3,17.6C-67.7,6.7,-41.5,-0.2,-28.4,-6.4C-15.3,-12.6,-15.3,-18.3,-12.8,-31.7C-10.2,-45.2,-5.1,-66.4,4.9,-74C14.9,-81.6,29.9,-75.7,40.3,-65.8Z" transform="translate(100 100)" />
</svg>
